<?xml version="1.0" standalone="no"?>
<!DOCTYPE svg PUBLIC "-//W3C//DTD SVG 20010904//EN"
 "http://www.w3.org/TR/2001/REC-SVG-20010904/DTD/svg10.dtd">
<svg version="1.0" xmlns="http://www.w3.org/2000/svg"
 width="300.000000pt" height="300.000000pt" viewBox="0 0 300.000000 300.000000"
 preserveAspectRatio="xMidYMid meet">
<metadata>
Created by potrace 1.14, written by Peter Selinger 2001-2017
</metadata>
<g transform="translate(0.000000,300.000000) scale(0.100000,-0.100000)"
fill="#000000" stroke="none">
<path d="M442 2768 c-31 -63 -39 -99 -39 -178 0 -93 19 -157 69 -231 17 -25
16 -26 -11 -60 -16 -19 -31 -43 -35 -55 -6 -20 -5 -20 64 -6 68 13 72 13 152
-14 46 -16 89 -27 96 -26 6 2 12 -1 12 -6 0 -5 -6 -9 -12 -9 -7 -1 -56 -8
-108 -17 -52 -10 -110 -19 -129 -22 -64 -9 -215 -44 -222 -51 -7 -7 -12 -94
-10 -145 1 -10 12 -19 29 -23 65 -14 118 -65 127 -121 3 -16 8 -45 11 -64 31
-198 106 -329 239 -416 100 -66 250 -96 370 -73 103 19 226 97 289 184 15 20
15 20 29 1 8 -11 23 -36 33 -55 11 -20 27 -45 36 -56 9 -11 25 -31 35 -44 17
-21 21 -22 34 -8 32 36 43 51 85 120 24 39 44 67 44 61 0 -16 83 -100 130
-131 72 -48 156 -75 242 -78 231 -9 419 118 502 339 14 36 25 67 24 69 0 1 5
41 11 88 18 123 36 147 143 188 25 9 26 13 25 85 0 83 -1 84 -87 102 -19 4
-37 8 -40 9 -6 1 -86 16 -115 21 -11 2 -60 10 -109 19 -49 8 -103 15 -120 16
-22 0 -1 10 72 35 105 34 119 35 215 14 20 -4 37 -6 37 -3 0 3 -16 28 -35 54
l-35 49 30 53 c58 104 71 227 35 336 -25 77 -33 78 -102 13 -69 -65 -160 -116
-286 -161 l-88 -31 -72 34 c-40 19 -88 41 -107 49 -44 19 -179 54 -245 64 -68
9 -268 9 -330 -1 -27 -5 -59 -10 -70 -12 -66 -10 -218 -65 -305 -109 l-49 -25
-98 36 c-149 56 -274 133 -321 196 -17 24 -26 23 -40 -4z m290 -261 c32 -15
99 -43 150 -62 85 -33 236 -103 248 -115 3 -3 32 -23 64 -44 33 -21 88 -66
123 -100 35 -34 63 -60 63 -57 0 3 -18 34 -39 70 -52 88 -118 153 -224 221
l-87 57 47 20 c90 38 195 66 298 78 55 7 188 8 220 1 11 -2 45 -7 75 -11 62
-9 184 -46 238 -74 l36 -18 -35 -18 c-106 -55 -230 -174 -280 -269 l-32 -61
54 54 c109 108 231 181 424 255 148 57 198 80 253 117 24 16 45 29 47 29 14 0
-49 -91 -97 -140 -79 -79 -194 -154 -379 -245 -175 -86 -237 -129 -290 -199
l-37 -49 -82 0 -82 0 -43 56 c-56 71 -103 103 -289 194 -245 122 -402 241
-466 355 l-23 41 44 -30 c24 -16 70 -41 101 -56z m318 -453 c168 -48 251 -144
256 -291 6 -161 -73 -299 -206 -362 -67 -31 -200 -39 -268 -15 -132 45 -230
155 -261 295 -6 24 -9 82 -8 129 5 169 75 238 257 257 30 3 56 6 57 8 9 6 127
-8 173 -21z m1154 6 c79 -16 116 -33 147 -67 45 -47 61 -90 64 -173 8 -187
-75 -343 -224 -417 -50 -25 -66 -28 -156 -28 -87 0 -107 4 -155 26 -130 62
-209 189 -211 341 -2 95 26 163 90 221 107 97 273 133 445 97z m-1744 -25 c20
-24 -2 -65 -31 -60 -54 11 -44 63 12 74 4 0 12 -6 19 -14z m2113 -13 c9 -20 8
-26 -8 -38 -24 -18 -30 -18 -49 1 -15 15 -12 44 6 56 19 12 40 5 51 -19z
m-1042 -251 c5 -1 23 -135 19 -143 -1 -2 6 -20 15 -40 18 -44 15 -46 -25 -17
-37 28 -70 27 -111 -2 -27 -19 -31 -20 -26 -6 4 10 14 57 23 105 9 48 18 93
20 100 2 8 16 11 41 8 21 -3 41 -5 44 -5z"/>
<path d="M954 2030 c-65 -14 -115 -60 -65 -60 27 0 54 -36 54 -72 0 -61 -81
-91 -123 -46 l-20 22 0 -30 c0 -71 38 -138 103 -179 36 -23 131 -24 173 -2
105 55 142 189 76 282 -44 63 -129 99 -198 85z"/>
<path d="M1925 2023 c-11 -2 -31 -12 -44 -22 l-24 -18 29 -14 c40 -19 57 -58
43 -97 -16 -46 -77 -57 -117 -19 l-25 22 5 -52 c7 -73 45 -128 110 -158 83
-38 166 -21 223 47 68 81 67 187 -3 262 -46 49 -115 66 -197 49z"/>
<path d="M295 1811 c-3 -12 -9 -33 -11 -48 -3 -16 -10 -48 -15 -73 -21 -94
-28 -266 -15 -394 15 -161 91 -374 180 -505 20 -29 36 -55 36 -58 0 -8 39 -51
130 -143 101 -103 202 -172 356 -247 l114 -55 0 -44 c0 -69 58 -105 102 -64
19 18 22 31 22 126 1 114 -7 138 -49 154 -34 13 -123 203 -149 318 -2 9 -9 35
-14 57 -20 74 -30 153 -31 246 l-1 65 -39 2 c-69 4 -145 24 -216 57 -56 25
-170 108 -184 133 -10 18 -23 11 -29 -16 -12 -53 -10 -264 3 -332 8 -41 15
-77 15 -79 0 -29 -95 214 -105 267 -9 52 -14 74 -21 95 -10 31 -12 255 -3 295
4 18 3 48 -2 65 -8 29 -19 101 -23 151 0 10 -11 25 -23 33 -19 13 -22 12 -28
-6z"/>
<path d="M2644 1812 c-7 -4 -14 -34 -17 -67 -3 -33 -9 -71 -14 -85 -5 -14 -8
-102 -7 -196 1 -149 -1 -182 -21 -260 -37 -141 -81 -264 -96 -264 -3 0 -1 35
6 78 16 113 10 311 -11 331 -3 3 -18 -8 -33 -24 -90 -96 -254 -172 -383 -177
-31 -1 -38 -5 -39 -22 -3 -77 -11 -163 -23 -247 -9 -58 -55 -207 -81 -266 -14
-29 -25 -56 -25 -58 0 -14 -57 -95 -67 -95 -6 0 -21 -12 -33 -27 -19 -24 -21
-39 -19 -131 1 -87 4 -107 20 -123 24 -24 50 -24 78 -1 20 15 23 28 30 110 1
6 6 12 13 12 18 0 146 61 228 108 233 137 414 357 510 622 15 41 27 77 27 80
1 3 6 23 11 45 21 81 26 133 27 280 0 157 -4 198 -31 314 -15 68 -25 80 -50
63z"/>
<path d="M1111 1123 c-55 -45 -16 -140 52 -129 35 6 66 40 67 74 0 30 -43 72
-73 72 -14 0 -34 -8 -46 -17z"/>
<path d="M1379 1127 c-26 -20 -29 -54 -7 -82 23 -29 47 -32 77 -7 30 23 33 53
8 80 -23 24 -53 28 -78 9z"/>
<path d="M1545 1116 c-22 -22 -23 -28 -14 -55 6 -17 14 -32 17 -33 74 -17 125
40 79 90 -26 29 -52 28 -82 -2z"/>
<path d="M1785 1115 c-32 -31 -32 -69 0 -101 53 -52 138 4 114 76 -19 52 -75
65 -114 25z"/>
<path d="M1303 969 c-43 -16 -55 -67 -23 -99 25 -25 51 -25 79 -2 27 21 32 50
14 78 -17 26 -41 34 -70 23z"/>
<path d="M1655 968 c-49 -22 -52 -83 -5 -108 60 -32 122 53 70 97 -24 20 -39
23 -65 11z"/>
<path d="M1180 813 c-40 -14 -53 -69 -22 -96 25 -23 54 -21 80 3 25 24 22 57
-9 83 -22 18 -25 19 -49 10z"/>
<path d="M1764 796 c-25 -21 -27 -27 -19 -52 14 -39 55 -53 89 -30 41 27 29
84 -21 100 -15 5 -29 0 -49 -18z"/>
<path d="M1450 793 c-34 -23 -40 -33 -40 -68 0 -95 128 -120 165 -32 11 27 11
36 -1 59 -29 55 -79 72 -124 41z"/>
<path d="M1274 446 c-16 -13 -19 -29 -22 -129 -3 -106 -2 -117 17 -136 26 -26
55 -27 81 -1 18 18 22 34 22 90 0 128 -3 151 -22 170 -24 24 -49 25 -76 6z"/>
<path d="M1621 434 c-18 -22 -20 -38 -18 -135 2 -60 7 -113 12 -118 22 -21 61
-22 85 -3 23 18 24 26 25 130 0 94 -3 113 -19 131 -26 28 -60 26 -85 -5z"/>
<path d="M1429 352 c-2 -12 -2 -76 0 -99 1 -20 6 -22 58 -20 l57 2 3 58 c2 31
0 58 -4 58 -34 6 -113 6 -114 1z"/>
</g>
</svg>
