<?xml version="1.0" standalone="no"?>
<!DOCTYPE svg PUBLIC "-//W3C//DTD SVG 20010904//EN"
 "http://www.w3.org/TR/2001/REC-SVG-20010904/DTD/svg10.dtd">
<svg version="1.0" xmlns="http://www.w3.org/2000/svg"
 width="300.000000pt" height="300.000000pt" viewBox="0 0 300.000000 300.000000"
 preserveAspectRatio="xMidYMid meet">
<metadata>
Created by potrace 1.14, written by Peter Selinger 2001-2017
</metadata>
<g transform="translate(0.000000,300.000000) scale(0.100000,-0.100000)"
fill="#000000" stroke="none">
<path d="M634 2813 c-14 -14 -16 -31 -12 -108 5 -97 32 -173 83 -241 l24 -31
-36 -59 c-20 -32 -43 -80 -53 -107 -21 -60 -22 -61 -71 -63 -22 -1 -45 -6 -50
-11 -8 -8 -13 -84 -10 -144 1 -11 23 -25 59 -40 31 -12 60 -27 63 -31 3 -5 2
-30 -2 -56 -14 -95 5 -201 51 -279 l19 -33 -24 -42 c-14 -24 -34 -72 -46 -108
-11 -36 -23 -72 -26 -80 -3 -8 -7 -38 -10 -67 l-4 -52 52 -15 c29 -9 54 -16
57 -16 2 0 2 16 -1 35 -7 51 8 58 84 36 35 -11 127 -38 203 -61 188 -55 294
-108 372 -186 116 -116 184 -116 300 1 40 40 87 74 135 97 65 32 173 73 219
83 8 2 71 20 139 39 69 20 133 34 144 30 14 -4 17 -3 12 6 -5 8 -4 11 2 7 6
-4 11 -19 11 -34 -1 -26 -1 -26 -15 -7 -15 18 -15 18 -9 -3 6 -18 3 -21 -23
-19 -24 2 -28 -1 -19 -11 8 -10 7 -12 -5 -8 -8 4 -18 1 -22 -4 -3 -6 -10 -9
-15 -6 -5 3 -20 0 -32 -7 -13 -7 -29 -11 -35 -10 -7 2 -13 -2 -13 -9 0 -6 -7
-9 -14 -6 -10 4 -13 1 -10 -8 6 -16 39 -12 93 11 20 9 43 17 51 19 8 2 22 5
30 7 8 1 21 10 28 18 9 10 11 10 6 1 -7 -14 -2 -13 76 14 40 14 42 23 24 105
-18 80 -29 114 -65 186 l-31 65 25 47 c14 26 31 67 37 92 13 46 16 182 6 199
-13 20 8 41 55 56 27 9 53 24 58 33 12 23 7 140 -6 153 -6 6 -29 12 -52 13
-22 1 -42 4 -44 7 -1 2 -13 31 -27 64 -13 33 -36 79 -52 102 -15 23 -28 45
-28 50 0 5 16 33 35 63 47 73 65 132 69 226 5 138 -24 147 -128 41 -58 -60
-126 -109 -156 -112 -3 0 -9 -3 -15 -6 -16 -10 -77 -28 -115 -34 -19 -3 -51
-10 -70 -15 -37 -10 -142 -6 -161 5 -38 24 -309 38 -394 20 -16 -3 -44 -8 -62
-10 -17 -3 -43 -9 -56 -14 -61 -24 -257 14 -368 69 -55 28 -126 90 -164 143
-23 31 -46 34 -71 10z m256 -443 c19 -6 49 -13 66 -16 27 -4 124 -28 220 -53
109 -29 233 -117 307 -218 l24 -32 38 50 c53 70 118 124 189 159 53 26 202 70
290 86 16 2 38 10 49 15 15 8 18 8 12 -1 -6 -9 -3 -9 11 -2 11 5 35 13 55 16
31 5 38 2 57 -24 12 -16 22 -34 22 -40 0 -5 4 -10 9 -10 9 0 46 -67 46 -84 0
-5 -84 -8 -190 -8 -207 2 -267 -7 -347 -50 -53 -29 -115 -88 -143 -135 -15
-25 -24 -31 -39 -27 -34 11 -88 13 -112 4 -20 -8 -27 -5 -41 18 -10 15 -22 32
-28 38 -5 6 -19 22 -31 35 -30 34 -53 51 -104 76 -72 36 -127 43 -329 40 -164
-2 -191 0 -191 13 0 19 52 108 79 138 25 25 32 26 81 12z m-238 -274 c11 -16
10 -38 -1 -32 -5 4 -11 2 -13 -3 -1 -5 -11 -4 -21 3 -9 8 -15 20 -12 28 7 17
37 20 47 4z m86 -14 c3 -18 -1 -22 -22 -22 -27 0 -31 7 -20 35 9 23 38 14 42
-13z m447 -11 c182 -83 225 -312 83 -451 -66 -65 -130 -90 -221 -85 -209 12
-353 203 -298 397 15 54 68 121 115 145 71 37 232 34 321 -6z m263 -509 c49
-102 65 -104 114 -12 16 30 31 56 33 59 3 2 15 -9 27 -25 79 -101 174 -151
305 -160 81 -6 95 -4 177 24 50 17 93 29 98 26 4 -3 5 2 2 10 -4 11 0 13 14 9
16 -4 19 -13 17 -49 -2 -51 -2 -51 -35 -57 -70 -14 -333 -92 -396 -118 -110
-46 -222 -130 -275 -207 -16 -22 -16 -22 -95 56 -120 117 -237 171 -541 248
-90 22 -113 32 -114 46 -7 102 -4 116 20 94 39 -35 155 -78 226 -83 136 -10
239 28 330 123 33 35 62 63 65 63 3 0 15 -21 28 -47z"/>
<path d="M1064 1941 c-36 -16 -64 -60 -64 -104 0 -33 6 -46 37 -74 32 -31 41
-35 75 -30 89 12 129 113 71 176 -30 33 -83 46 -119 32z"/>
<path d="M508 1213 c-20 -5 -40 -51 -34 -79 2 -12 7 -37 10 -55 3 -19 8 -43
10 -54 15 -72 41 -199 81 -390 37 -177 50 -224 68 -241 12 -12 58 -34 102 -49
44 -15 159 -54 255 -87 96 -32 182 -62 190 -65 8 -3 21 -7 28 -9 8 -1 21 -6
30 -10 9 -4 22 -8 27 -10 6 -1 56 -18 112 -38 56 -20 110 -36 120 -36 14 0
196 60 313 103 16 6 152 50 160 52 3 1 12 4 20 7 8 4 92 32 185 63 94 31 178
65 189 75 16 15 74 267 131 570 4 23 7 35 20 100 19 89 18 117 -6 138 -30 29
-61 27 -144 -8 -11 -5 -51 -18 -90 -30 -38 -12 -77 -24 -85 -27 -19 -8 -17 -7
-70 -21 -25 -7 -52 -16 -60 -21 -8 -4 -103 -36 -210 -70 -107 -34 -202 -65
-210 -68 -8 -3 -19 -7 -25 -8 -5 -1 -32 -10 -58 -19 -26 -9 -54 -16 -62 -16
-12 0 -363 113 -793 256 -162 54 -172 56 -204 47z m972 -398 c29 -11 41 -11
70 2 54 22 55 22 58 -38 2 -43 -1 -59 -15 -71 -27 -24 -83 -36 -123 -26 -51
13 -66 37 -64 94 3 68 2 67 22 59 9 -4 33 -13 52 -20z m-33 -450 c30 -21 81
-22 121 -1 29 15 33 15 38 1 13 -32 -2 -125 -22 -140 -35 -27 -76 -33 -121
-18 -47 16 -56 32 -59 108 -2 70 4 77 43 50z"/>
<path d="M2055 1169 c-4 -6 -5 -12 -2 -15 2 -3 7 2 10 11 7 17 1 20 -8 4z"/>
</g>
</svg>
